<?xml version="1.0" encoding="utf-8"?>
<!-- Generator: Adobe Illustrator 23.0.4, SVG Export Plug-In . SVG Version: 6.00 Build 0)  -->
<svg version="1.1" xmlns="http://www.w3.org/2000/svg" xmlns:xlink="http://www.w3.org/1999/xlink" x="0px" y="0px"
     viewBox="0 0 453.1396484 451.6956177"
     style="enable-background:new 0 0 453.1396484 451.6956177;background-color: #000;" xml:space="preserve">
<style type="text/css">
	.st1{display:none;}
	.st2{fill:#FFFFFF;}
	.st3{fill:none;stroke:#FFFFFF;stroke-miterlimit:10;}
	.st4{fill:#D0D600;}
</style>
    <g id="labels">
        <g id="naming" class="st1">
            <set
                    attributeName="display"
                    to="inline"
                    begin="all-rot-4.end + 0s"
                    fill="freeze"
            />
            <path class="st2" d="M141.1711884,53.2656212h0.9116211l4.8935547,7.315918h0.0239258v-7.315918h0.8037109v8.875h-0.7558594l-5.0493164-7.5439453h-0.0239258v7.5439453h-0.8037109V53.2656212z"/>
            <path class="st2" d="M149.5237274,60.6655235c0-1.2475586,1.0673828-2.1586914,4.2817383-2.6508789v-0.3237305c0-0.8754883-0.4560547-1.2949219-1.2832031-1.2949219c-0.9956055,0-1.703125,0.4194336-2.362793,0.9951172l-0.4438477-0.515625c0.7553711-0.6958008,1.6313477-1.175293,2.878418-1.175293c1.4150391,0,2.0268555,0.7553711,2.0268555,2.0146484v2.8666992c0,0.7675781,0.0478516,1.2353516,0.1801758,1.559082h-0.8515625c-0.0839844-0.2636719-0.144043-0.5395508-0.144043-0.8994141c-0.7319336,0.659668-1.5473633,1.0073242-2.4946289,1.0073242C150.1833954,62.2485313,149.5237274,61.648922,149.5237274,60.6655235z M153.8054657,60.5693321v-1.9667969c-2.7104492,0.4555664-3.4663086,1.1274414-3.4663086,1.9550781c0,0.659668,0.4438477,1.0073242,1.1513672,1.0073242C152.3782196,61.5649376,153.1575165,61.1933556,153.8054657,60.5693321z"/>
            <path class="st2" d="M156.4714813,55.8203087h0.8276367v0.9951172c0.6357422-0.6235352,1.3671875-1.1152344,2.3144531-1.1152344c1.0673828,0,1.5473633,0.4677734,1.7392578,1.1391602c0.659668-0.6235352,1.4511719-1.1391602,2.3867188-1.1391602c1.2954102,0,1.8227539,0.7314453,1.8227539,1.8710938v4.5693359h-0.8271484V57.727047c0-0.8876953-0.300293-1.3193359-1.1875-1.3193359c-0.7675781,0-1.4033203,0.4199219-2.1108398,1.1035156v4.6293945h-0.8276367V57.727047c0-0.8876953-0.2998047-1.3193359-1.1992188-1.3193359c-0.7558594,0-1.4033203,0.4199219-2.1108398,1.1035156v4.6293945h-0.8276367V55.8203087z"/>
            <path class="st2" d="M167.4753876,53.4692345h0.8754883v0.8876953h-0.8754883V53.4692345z M167.4993134,55.8203087h0.8276367v6.3203125h-0.8276367V55.8203087z"/>
            <path class="st2" d="M170.3074188,55.8203087h0.8276367v0.9951172c0.6113281-0.5996094,1.4150391-1.1152344,2.4106445-1.1152344c1.2470703,0,1.8828125,0.6958008,1.8828125,1.8710938v4.5693359h-0.8276367V57.727047c0-0.8876953-0.3955078-1.3193359-1.2592773-1.3193359c-0.8154297,0-1.4990234,0.4199219-2.206543,1.1035156v4.6293945h-0.8276367V55.8203087z"/>
            <path class="st2" d="M176.5832977,62.9799767c0-0.6474609,0.4321289-1.1513672,1.1635742-1.4389648c-0.3837891-0.1557617-0.5639648-0.4199219-0.5639648-0.8037109s0.3120117-0.7075195,0.7675781-0.9472656c-0.5996094-0.3837891-0.9589844-1.0317383-0.9589844-1.8110352c0-1.3432617,1.0673828-2.2788086,2.4941406-2.2788086c0.7319336,0,1.3554688,0.2397461,1.7993164,0.6474609c0.371582-0.2758789,0.9594727-0.515625,1.4633789-0.5756836v0.7797852c-0.3720703,0-0.7919922,0.0600586-1.1513672,0.2158203c0.2397461,0.3237305,0.371582,0.7197266,0.371582,1.2114258c0,1.3793945-1.0795898,2.2426758-2.4829102,2.2426758c-0.371582,0-0.7075195-0.0600586-1.019043-0.1796875c-0.2998047,0.1196289-0.5039062,0.2998047-0.5039062,0.5395508c0,0.2636719,0.2280273,0.4077148,0.9355469,0.4794922l1.3793945,0.1079102c1.4628906,0.1201172,2.2304688,0.6240234,2.2304688,1.6074219c0,1.1513672-1.1992188,1.7871132-2.9262695,1.7871132C177.5310516,64.5634766,176.5832977,63.9516563,176.5832977,62.9799767zM181.7405243,62.8481407c0-0.5996094-0.4794922-0.8994141-1.7270508-0.9956055l-1.2592773-0.0957031l-0.3237305-0.0361328c-0.7075195,0.2280273-1.0551758,0.671875-1.0551758,1.1513672c0,0.659668,0.6953125,1.043457,2.2905273,1.043457C180.9612274,63.9155235,181.7405243,63.4838829,181.7405243,62.8481407z M181.1887665,57.9907188c0-1.0073242-0.6235352-1.6308594-1.703125-1.6308594c-1.0429688,0-1.690918,0.6474609-1.690918,1.6308594c0,0.9716797,0.671875,1.5952148,1.703125,1.5952148S181.1887665,58.9623985,181.1887665,57.9907188z"/>
        </g>
        <g id="logo" class="st1">
            <set
                    attributeName="display"
                    to="inline"
                    begin="all-rot-4.end + 0s"
                    fill="freeze"
            />
            <path class="st2" d="M274.2707825,53.2656212h0.8515625v8.0952148h4.3417969v0.7797852h-5.1933594V53.2656212z"/>
            <path class="st2" d="M280.0793762,58.9863243c0-2.1108398,1.3066406-3.2861328,2.8662109-3.2861328
        c1.546875,0,2.8544922,1.175293,2.8544922,3.2861328c0,2.0986328-1.3076172,3.2861328-2.8544922,3.2861328
        S280.0793762,61.0849571,280.0793762,58.9863243z M284.9729309,58.9746056c0-1.3793945-0.6962891-2.5668945-2.0273438-2.5668945
        c-1.2832031,0-2.0390625,1.0795898-2.0390625,2.5668945c0,1.402832,0.6835938,2.590332,2.0390625,2.590332
        C284.2170715,61.5649376,284.9729309,60.4975548,284.9729309,58.9746056z"/>
            <path class="st2" d="M286.6672668,62.9799767c0-0.6474609,0.4326172-1.1513672,1.1640625-1.4389648
        c-0.3837891-0.1557617-0.5634766-0.4199219-0.5634766-0.8037109s0.3115234-0.7075195,0.7675781-0.9472656
        c-0.6005859-0.3837891-0.9599609-1.0317383-0.9599609-1.8110352c0-1.3432617,1.0673828-2.2788086,2.4951172-2.2788086
        c0.7314453,0,1.3544922,0.2397461,1.7988281,0.6474609c0.3710938-0.2758789,0.9589844-0.515625,1.4628906-0.5756836v0.7797852
        c-0.3720703,0-0.7919922,0.0600586-1.1513672,0.2158203c0.2402344,0.3237305,0.3720703,0.7197266,0.3720703,1.2114258
        c0,1.3793945-1.0800781,2.2426758-2.4824219,2.2426758c-0.3720703,0-0.7080078-0.0600586-1.0195312-0.1796875
        c-0.2998047,0.1196289-0.5039062,0.2998047-0.5039062,0.5395508c0,0.2636719,0.2275391,0.4077148,0.9355469,0.4794922
        l1.3789062,0.1079102c1.4628906,0.1201172,2.2304688,0.6240234,2.2304688,1.6074219
        c0,1.1513672-1.1992188,1.7871132-2.9257812,1.7871132C287.615509,64.5634766,286.6672668,63.9516563,286.6672668,62.9799767z
         M291.8244934,62.8481407c0-0.5996094-0.4794922-0.8994141-1.7265625-0.9956055l-1.2597656-0.0957031l-0.3232422-0.0361328
        c-0.7080078,0.2280273-1.0556641,0.671875-1.0556641,1.1513672c0,0.659668,0.6953125,1.043457,2.2910156,1.043457
        C291.0451965,63.9155235,291.8244934,63.4838829,291.8244934,62.8481407z M291.2727356,57.9907188
        c0-1.0073242-0.6230469-1.6308594-1.7021484-1.6308594c-1.0439453,0-1.6914062,0.6474609-1.6914062,1.6308594
        c0,0.9716797,0.671875,1.5952148,1.703125,1.5952148S291.2727356,58.9623985,291.2727356,57.9907188z"/>
            <path class="st2" d="M293.5315247,58.9863243c0-2.1108398,1.3066406-3.2861328,2.8662109-3.2861328
        c1.546875,0,2.8544922,1.175293,2.8544922,3.2861328c0,2.0986328-1.3076172,3.2861328-2.8544922,3.2861328
        S293.5315247,61.0849571,293.5315247,58.9863243z M298.4250793,58.9746056c0-1.3793945-0.6962891-2.5668945-2.0273438-2.5668945
        c-1.2832031,0-2.0390625,1.0795898-2.0390625,2.5668945c0,1.402832,0.6835938,2.590332,2.0390625,2.590332
        C297.66922,61.5649376,298.4250793,60.4975548,298.4250793,58.9746056z"/>
            <path class="st2" d="M300.646759,58.0146446h2.6992188v0.7197266h-2.6992188V58.0146446z"/>
            <path class="st2" d="M256.2961731,71.9746094c0-2.2431641,1.4394531-3.2744141,2.7705078-3.2744141
        c1.4746094,0,2.578125,1.1274414,2.578125,3.2861328v0.1557617h-4.5214844
        c0.0126953,1.559082,0.8994141,2.4350586,1.9912109,2.4350586c0.9472656,0,1.4873047-0.4082031,1.9667969-1.1513672
        l0.515625,0.4077148c-0.5517578,0.887207-1.3310547,1.4389648-2.5302734,1.4389648
        C257.591095,75.2724609,256.2961731,74.1333008,256.2961731,71.9746094z M260.841095,71.4824219
        c-0.0839844-1.1992188-0.6591797-2.0864258-1.7861328-2.0864258c-0.9121094,0-1.7636719,0.659668-1.9189453,2.0864258H260.841095z
        "/>
            <path class="st2" d="M263.2073059,68.8203125h0.828125v0.9951172c0.6113281-0.5996094,1.4150391-1.1152344,2.4101562-1.1152344
        c1.2470703,0,1.8828125,0.6958008,1.8828125,1.8710938v4.5693359h-0.8271484v-4.4135742
        c0-0.8876953-0.3955078-1.3193359-1.2597656-1.3193359c-0.8154297,0-1.4990234,0.4199219-2.2060547,1.1035156v4.6293945h-0.828125
        V68.8203125z"/>
            <path class="st2" d="M270.6116028,73.6655273V69.527832h-1.1035156v-0.7075195h1.1035156v-2.2670898h0.8271484v2.2670898
        h1.6435547v0.7075195h-1.6435547v3.9697266c0,0.6713867,0.2158203,1.03125,0.9960938,1.03125
        c0.2392578,0,0.4794922-0.0239258,0.6591797-0.0839844v0.7080078c-0.1914062,0.0356445-0.5273438,0.0717773-0.8154297,0.0717773
        C271.0676575,75.2246094,270.6116028,74.7568359,270.6116028,73.6655273z"/>
            <path class="st2" d="M273.73172,68.8203125h0.8642578l0.8867188,3.1298828
        c0.2285156,0.8037109,0.3720703,1.331543,0.5878906,2.1469727h0.0244141
        c0.2275391-0.8994141,0.3476562-1.3432617,0.5751953-2.1469727l0.8642578-3.1298828h0.7548828l0.8759766,3.1899414
        c0.2275391,0.7675781,0.3476562,1.2592773,0.5517578,2.0869141h0.0234375
        c0.2285156-0.8515625,0.3476562-1.2954102,0.5761719-2.0629883l0.9228516-3.2138672h0.8037109l-1.9423828,6.3203125h-0.7675781
        l-1.4277344-5.1933594h-0.0234375l-1.4511719,5.1933594h-0.7558594L273.73172,68.8203125z"/>
            <path class="st2" d="M283.3791809,66.4692383h0.8759766v0.8876953h-0.8759766V66.4692383z M283.403595,68.8203125h0.8271484
        v6.3203125h-0.8271484V68.8203125z"/>
            <path class="st2" d="M285.8518372,71.9863281c0-2.2666016,1.4033203-3.2861328,2.8183594-3.2861328
        c1.3554688,0,2.0263672,0.8037109,2.4228516,1.7270508l-0.7080078,0.3120117
        c-0.3476562-0.8515625-0.8515625-1.331543-1.7392578-1.331543c-0.9355469,0-1.9667969,0.671875-1.9667969,2.5668945
        c0,1.6547852,0.8398438,2.590332,1.9433594,2.590332c0.875,0,1.3671875-0.4077148,1.8105469-1.3432617l0.671875,0.2880859
        c-0.5039062,1.0673828-1.2353516,1.7626953-2.5185547,1.7626953
        C287.1350403,75.2724609,285.8518372,74.0849609,285.8518372,71.9863281z"/>
            <path class="st2" d="M292.5832825,66.265625h0.828125v5.8886719l3.0097656-3.3339844h0.9716797l-2.0625,2.2304688
        l2.3144531,4.0898438h-0.8994141l-1.9667969-3.4541016l-1.3671875,1.4633789v1.9907227h-0.828125V66.265625z"/>
            <path class="st2" d="M299.0149231,66.265625h0.828125v8.875h-0.828125V66.265625z"/>
            <path class="st2" d="M301.76297,73.3896484v-4.5693359h0.828125v4.425293c0,0.8876953,0.3837891,1.3193359,1.2587891,1.3193359
        c0.8037109,0,1.4873047-0.4316406,2.1953125-1.1035156v-4.6411133h0.8388672v6.3203125h-0.8388672v-0.9956055
        c-0.6123047,0.5996094-1.4150391,1.1274414-2.3984375,1.1274414
        C302.3869934,75.2724609,301.76297,74.5649414,301.76297,73.3896484z"/>
            <path class="st2" d="M308.7951965,68.8203125h0.8271484v0.9951172c0.6123047-0.5996094,1.4150391-1.1152344,2.4111328-1.1152344
        c1.2470703,0,1.8828125,0.6958008,1.8828125,1.8710938v4.5693359h-0.828125v-4.4135742
        c0-0.8876953-0.3955078-1.3193359-1.2587891-1.3193359c-0.8154297,0-1.4990234,0.4199219-2.2070312,1.1035156v4.6293945
        h-0.8271484V68.8203125z"/>
            <path class="st2" d="M315.0715637,75.9799805c0-0.6474609,0.4316406-1.1513672,1.1630859-1.4389648
        c-0.3837891-0.1557617-0.5634766-0.4199219-0.5634766-0.8037109s0.3115234-0.7075195,0.7675781-0.9472656
        c-0.5996094-0.3837891-0.9589844-1.0317383-0.9589844-1.8110352c0-1.3432617,1.0673828-2.2788086,2.4941406-2.2788086
        c0.7314453,0,1.3554688,0.2397461,1.7988281,0.6474609c0.3720703-0.2758789,0.9599609-0.515625,1.4638672-0.5756836v0.7797852
        c-0.3720703,0-0.7919922,0.0600586-1.1513672,0.2158203c0.2392578,0.3237305,0.3710938,0.7197266,0.3710938,1.2114258
        c0,1.3793945-1.0791016,2.2426758-2.4824219,2.2426758c-0.3720703,0-0.7080078-0.0600586-1.0195312-0.1796875
        c-0.2998047,0.1196289-0.5039062,0.2998047-0.5039062,0.5395508c0,0.2636719,0.2285156,0.4077148,0.9355469,0.4794922
        l1.3798828,0.1079102c1.4628906,0.1201172,2.2304688,0.6240234,2.2304688,1.6074219
        c0,1.1513672-1.1992188,1.7871094-2.9267578,1.7871094C316.0188293,77.5634766,315.0715637,76.9516602,315.0715637,75.9799805z
         M320.2287903,75.8481445c0-0.5996094-0.4794922-0.8994141-1.7275391-0.9956055l-1.2587891-0.0957031l-0.3242188-0.0361328
        c-0.7070312,0.2280273-1.0546875,0.671875-1.0546875,1.1513672c0,0.659668,0.6953125,1.043457,2.2900391,1.043457
        C319.4494934,76.9155273,320.2287903,76.4838867,320.2287903,75.8481445z M319.6770325,70.9907227
        c0-1.0073242-0.6240234-1.6308594-1.703125-1.6308594c-1.0429688,0-1.6914062,0.6474609-1.6914062,1.6308594
        c0,0.9716797,0.671875,1.5952148,1.703125,1.5952148S319.6770325,71.9624023,319.6770325,70.9907227z"/>
</g>
        <g id="editorial" class="st1">
            <set
                    attributeName="display"
                    to="inline"
                    begin="all-rot-4.end + 0s"
                    fill="freeze"
            />
            <path class="st2" d="M140.1091766,380.7021484h5.3012695v0.7919922h-4.449707v3.0097656h3.3222656v0.7675781h-3.3222656v3.5263672
        h4.7016602v0.7792969h-5.5532227V380.7021484z"/>
            <path class="st2" d="M146.505661,386.4228516c0-2.2060547,1.1630859-3.2861328,2.6743164-3.2861328
        c0.8154297,0,1.5473633,0.4316406,2.0390625,0.9833984v-3.4179688h0.8276367v7.3164062
        c0,0.7675781,0.0478516,1.2353516,0.1918945,1.5585938h-0.8759766c-0.0717773-0.2158203-0.1435547-0.5878906-0.1435547-0.9228516
        c-0.515625,0.5517578-1.1635742,1.03125-2.1108398,1.03125
        C147.6570282,389.6855469,146.505661,388.6298828,146.505661,386.4228516z M151.2190399,387.9462891v-3.0703125
        c-0.6240234-0.671875-1.2353516-1.0429688-1.9667969-1.0429688c-1.1157227,0-1.9189453,0.8154297-1.9189453,2.6025391
        c0,1.7382812,0.8632812,2.5419922,1.9189453,2.5419922C150.0315399,388.9775391,150.6194305,388.5820312,151.2190399,387.9462891z
        "/>
            <path class="st2" d="M154.0173798,380.90625h0.8754883v0.8876953h-0.8754883V380.90625z M154.0413055,383.2568359h0.8276367
        v6.3203125h-0.8276367V383.2568359z"/>
            <path class="st2" d="M157.2810516,388.1025391v-4.1376953h-1.1030273v-0.7080078h1.1030273v-2.2666016h0.8276367v2.2666016
        h1.6430664v0.7080078h-1.6430664v3.9697266c0,0.6708984,0.2158203,1.03125,0.9956055,1.03125
        c0.2397461,0,0.4794922-0.0244141,0.659668-0.0839844v0.7080078c-0.1918945,0.0351562-0.527832,0.0712891-0.815918,0.0712891
        C157.7371063,389.6611328,157.2810516,389.1933594,157.2810516,388.1025391z"/>
            <path class="st2" d="M160.7615204,386.4228516c0-2.1103516,1.3071289-3.2861328,2.8666992-3.2861328
        c1.546875,0,2.8540039,1.1757812,2.8540039,3.2861328c0,2.0986328-1.3071289,3.2861328-2.8540039,3.2861328
        C162.0808563,389.7089844,160.7615204,388.5214844,160.7615204,386.4228516z M165.6550751,386.4111328
        c0-1.3789062-0.6958008-2.5664062-2.0268555-2.5664062c-1.2836914,0-2.0390625,1.0791016-2.0390625,2.5664062
        c0,1.4033203,0.6835938,2.5908203,2.0390625,2.5908203C164.8992157,389.0019531,165.6550751,387.9345703,165.6550751,386.4111328z
        "/>
            <path class="st2" d="M168.0452118,383.2568359h0.8276367v1.2470703h0.0239258
        c0.4916992-0.7792969,1.2592773-1.3671875,2.5068359-1.3671875h0.1435547l-0.0839844,0.7675781
        c0,0-0.2275391-0.0117188-0.2519531-0.0117188c-1.03125,0-1.8466797,0.5751953-2.3383789,1.5712891v4.1132812h-0.8276367
        V383.2568359z"/>
            <path class="st2" d="M172.8328094,380.90625h0.8754883v0.8876953h-0.8754883V380.90625z M172.8567352,383.2568359h0.8276367
        v6.3203125h-0.8276367V383.2568359z"/>
            <path class="st2" d="M175.2810516,388.1025391c0-1.2480469,1.0673828-2.1591797,4.2817383-2.6513672v-0.3232422
        c0-0.8759766-0.4560547-1.2949219-1.2832031-1.2949219c-0.9956055,0-1.703125,0.4189453-2.362793,0.9951172l-0.4438477-0.515625
        c0.7553711-0.6962891,1.6308594-1.1757812,2.878418-1.1757812c1.4150391,0,2.0268555,0.7558594,2.0268555,2.0146484v2.8671875
        c0,0.7675781,0.0478516,1.2353516,0.1796875,1.5585938h-0.8510742c-0.0839844-0.2636719-0.144043-0.5390625-0.144043-0.8994141
        c-0.7314453,0.6601562-1.5473633,1.0078125-2.4946289,1.0078125
        C175.9407196,389.6855469,175.2810516,389.0859375,175.2810516,388.1025391z M179.5627899,388.0058594v-1.9667969
        c-2.7104492,0.4560547-3.4663086,1.1279297-3.4663086,1.9550781c0,0.6601562,0.4438477,1.0078125,1.1513672,1.0078125
        C178.1355438,389.0019531,178.9148407,388.6298828,179.5627899,388.0058594z"/>
            <path class="st2" d="M182.3005829,380.7021484h0.8276367v8.875h-0.8276367V380.7021484z"/>
            <path class="st2" d="M143.943161,395.1025391h2.2431641c2.8901367,0,4.4135742,1.4990234,4.4135742,4.4248047
        c0,2.9267578-1.5595703,4.4501953-4.4135742,4.4501953h-2.2431641V395.1025391z M146.318161,403.2099609
        c2.1948242,0,3.4301758-1.1152344,3.4301758-3.6826172c0-2.5058594-1.2475586-3.6337891-3.4541016-3.6337891h-1.4995117v7.3164062
        H146.318161z"/>
            <path class="st2" d="M151.7917938,400.8105469c0-2.2421875,1.4394531-3.2734375,2.7705078-3.2734375
        c1.4750977,0,2.5786133,1.1269531,2.5786133,3.2861328v0.1552734h-4.5214844
        c0.0117188,1.5595703,0.8994141,2.4355469,1.9907227,2.4355469c0.9477539,0,1.4873047-0.4082031,1.9672852-1.1513672
        l0.515625,0.4072266c-0.5517578,0.8876953-1.331543,1.4394531-2.5307617,1.4394531
        C153.087204,404.109375,151.7917938,402.9697266,151.7917938,400.8105469z M156.337204,400.3193359
        c-0.0839844-1.1992188-0.659668-2.0869141-1.7871094-2.0869141c-0.9111328,0-1.7626953,0.6591797-1.9189453,2.0869141H156.337204z
        "/>
            <path class="st2" d="M158.1394501,402.9697266l0.527832-0.4794922c0.4794922,0.5517578,1.0913086,0.9111328,1.9667969,0.9111328
        c1.0795898,0,1.6430664-0.3955078,1.6430664-1.1035156c0-0.6953125-0.503418-0.9707031-1.7387695-1.2587891
        c-1.4511719-0.3603516-2.1948242-0.7441406-2.1948242-1.8466797c0-0.9003906,0.7792969-1.6552734,2.1464844-1.6552734
        c1.0795898,0,1.7753906,0.359375,2.3388672,0.9111328L162.3611298,399
        c-0.4794922-0.4794922-1.0791016-0.7792969-1.8466797-0.7792969c-0.9838867,0-1.3676758,0.4550781-1.3676758,0.9355469
        c0,0.6113281,0.4321289,0.8632812,1.5351562,1.1269531c1.5834961,0.3837891,2.3989258,0.7675781,2.3989258,2.0029297
        c0,1.1513672-1.03125,1.8115234-2.4584961,1.8115234C159.4949188,404.0976562,158.6194305,403.6171875,158.1394501,402.9697266z"
            />
            <path class="st2" d="M164.7034149,395.3056641h0.8754883v0.8876953h-0.8754883V395.3056641z M164.7273407,397.6572266h0.8276367
        v6.3203125h-0.8276367V397.6572266z"/>
            <path class="st2" d="M166.8396454,404.8164062c0-0.6474609,0.4321289-1.1513672,1.1635742-1.4384766
        c-0.3837891-0.15625-0.5634766-0.4199219-0.5634766-0.8037109s0.3115234-0.7080078,0.7675781-0.9472656
        c-0.6000977-0.3837891-0.9599609-1.0322266-0.9599609-1.8115234c0-1.3427734,1.0678711-2.2783203,2.4951172-2.2783203
        c0.7314453,0,1.3549805,0.2392578,1.7988281,0.6474609c0.371582-0.2763672,0.9594727-0.515625,1.4628906-0.5761719v0.7802734
        c-0.371582,0-0.7915039,0.0595703-1.1513672,0.2158203c0.2402344,0.3232422,0.3720703,0.7197266,0.3720703,1.2109375
        c0,1.3789062-1.0795898,2.2431641-2.4824219,2.2431641c-0.3720703,0-0.7080078-0.0605469-1.0195312-0.1796875
        c-0.2998047,0.1191406-0.5039062,0.2998047-0.5039062,0.5390625c0,0.2636719,0.2280273,0.4082031,0.9355469,0.4794922
        l1.3793945,0.1083984c1.4628906,0.1201172,2.2304688,0.6240234,2.2304688,1.6074219
        c0,1.1513672-1.1992188,1.7871094-2.9262695,1.7871094C167.7873993,406.4003906,166.8396454,405.7880859,166.8396454,404.8164062z
         M171.9968719,404.6845703c0-0.5996094-0.4794922-0.8994141-1.7270508-0.9951172l-1.2592773-0.0957031l-0.3237305-0.0361328
        c-0.7075195,0.2275391-1.0556641,0.671875-1.0556641,1.1513672c0,0.6591797,0.6958008,1.0429688,2.2910156,1.0429688
        C171.2175751,405.7519531,171.9968719,405.3203125,171.9968719,404.6845703z M171.4451141,399.8271484
        c0-1.0068359-0.6235352-1.6308594-1.7026367-1.6308594c-1.043457,0-1.6914062,0.6474609-1.6914062,1.6308594
        c0,0.9716797,0.671875,1.5957031,1.703125,1.5957031S171.4451141,400.7988281,171.4451141,399.8271484z"/>
            <path class="st2" d="M174.3035126,397.6572266h0.8276367v0.9951172c0.6113281-0.5996094,1.4150391-1.1152344,2.4106445-1.1152344
        c1.2470703,0,1.8828125,0.6953125,1.8828125,1.8710938v4.5693359h-0.8276367v-4.4140625
        c0-0.8876953-0.3955078-1.3193359-1.2592773-1.3193359c-0.8154297,0-1.4990234,0.4199219-2.206543,1.1035156v4.6298828h-0.8276367
        V397.6572266z"/>
</g>
        <g id="corporate" class="st1">
            <set
                    attributeName="display"
                    to="inline"
                    begin="all-rot-4.end + 0s"
                    fill="freeze"
            />
            <path class="st2" d="M261.4075012,385.1035156c0-2.6865234,1.4755859-4.5693359,3.6943359-4.5693359
        c1.7988281,0,2.7949219,1.0673828,3.2138672,2.7109375l-0.8154297,0.2041016
        c-0.3955078-1.4033203-1.0556641-2.1357422-2.4101562-2.1357422c-1.7158203,0-2.8310547,1.4873047-2.8310547,3.7666016
        c0,2.4580078,1.1279297,3.8974609,2.8544922,3.8974609c1.3193359,0,2.1474609-0.7675781,2.53125-2.2548828l0.8154297,0.1806641
        c-0.4316406,1.7509766-1.5830078,2.8417969-3.3583984,2.8417969
        C262.8586731,389.7451172,261.4075012,387.9345703,261.4075012,385.1035156z"/>
            <path class="st2" d="M269.5676575,386.4228516c0-2.1103516,1.3076172-3.2861328,2.8671875-3.2861328
        c1.546875,0,2.8535156,1.1757812,2.8535156,3.2861328c0,2.0986328-1.3066406,3.2861328-2.8535156,3.2861328
        C270.8869934,389.7089844,269.5676575,388.5214844,269.5676575,386.4228516z M274.4612122,386.4111328
        c0-1.3789062-0.6953125-2.5664062-2.0263672-2.5664062c-1.2841797,0-2.0390625,1.0791016-2.0390625,2.5664062
        c0,1.4033203,0.6835938,2.5908203,2.0390625,2.5908203C273.7053528,389.0019531,274.4612122,387.9345703,274.4612122,386.4111328z
        "/>
            <path class="st2" d="M276.8518372,383.2568359h0.8271484v1.2470703h0.0244141
        c0.4912109-0.7792969,1.2587891-1.3671875,2.5068359-1.3671875h0.1435547l-0.0839844,0.7675781
        c0,0-0.2275391-0.0117188-0.2519531-0.0117188c-1.03125,0-1.8466797,0.5751953-2.3388672,1.5712891v4.1132812h-0.8271484
        V383.2568359z"/>
            <path class="st2" d="M281.591095,383.2568359h0.828125v0.8994141c0.5029297-0.5400391,1.1630859-1.0195312,2.1103516-1.0195312
        c1.4511719,0,2.6025391,1.0673828,2.6025391,3.2744141s-1.1630859,3.2744141-2.6748047,3.2744141
        c-0.8154297,0-1.4746094-0.3964844-2.0380859-0.9716797v3.2617188h-0.828125V383.2568359z M286.3049622,386.4228516
        c0-1.7509766-0.8632812-2.578125-1.9189453-2.578125c-0.7792969,0-1.3671875,0.4072266-1.9667969,1.0429688v3.0703125
        c0.6230469,0.6601562,1.2353516,1.03125,1.9667969,1.03125
        C285.5012512,388.9892578,286.3049622,388.2099609,286.3049622,386.4228516z"/>
            <path class="st2" d="M288.3479309,386.4228516c0-2.1103516,1.3066406-3.2861328,2.8662109-3.2861328
        c1.546875,0,2.8544922,1.1757812,2.8544922,3.2861328c0,2.0986328-1.3076172,3.2861328-2.8544922,3.2861328
        S288.3479309,388.5214844,288.3479309,386.4228516z M293.2414856,386.4111328
        c0-1.3789062-0.6962891-2.5664062-2.0273438-2.5664062c-1.2832031,0-2.0390625,1.0791016-2.0390625,2.5664062
        c0,1.4033203,0.6835938,2.5908203,2.0390625,2.5908203C292.4856262,389.0019531,293.2414856,387.9345703,293.2414856,386.4111328z
        "/>
            <path class="st2" d="M295.631134,383.2568359h0.828125v1.2470703h0.0234375
        c0.4921875-0.7792969,1.2597656-1.3671875,2.5068359-1.3671875h0.1435547l-0.0839844,0.7675781
        c0,0-0.2275391-0.0117188-0.2509766-0.0117188c-1.0322266,0-1.8476562,0.5751953-2.3388672,1.5712891v4.1132812h-0.828125
        V383.2568359z"/>
            <path class="st2" d="M299.7590637,388.1025391c0-1.2480469,1.0673828-2.1591797,4.2822266-2.6513672v-0.3232422
        c0-0.8759766-0.4560547-1.2949219-1.2832031-1.2949219c-0.9960938,0-1.703125,0.4189453-2.3632812,0.9951172l-0.4433594-0.515625
        c0.7548828-0.6962891,1.6308594-1.1757812,2.8779297-1.1757812c1.4150391,0,2.0273438,0.7558594,2.0273438,2.0146484v2.8671875
        c0,0.7675781,0.0478516,1.2353516,0.1796875,1.5585938h-0.8515625c-0.0839844-0.2636719-0.1435547-0.5390625-0.1435547-0.8994141
        c-0.7314453,0.6601562-1.5478516,1.0078125-2.4951172,1.0078125
        C300.41922,389.6855469,299.7590637,389.0859375,299.7590637,388.1025391z M304.0412903,388.0058594v-1.9667969
        c-2.7109375,0.4560547-3.4667969,1.1279297-3.4667969,1.9550781c0,0.6601562,0.4443359,1.0078125,1.1513672,1.0078125
        C302.6135559,389.0019531,303.3928528,388.6298828,304.0412903,388.0058594z"/>
            <path class="st2" d="M307.1389465,388.1025391v-4.1376953h-1.1035156v-0.7080078h1.1035156v-2.2666016h0.8271484v2.2666016
        h1.6435547v0.7080078h-1.6435547v3.9697266c0,0.6708984,0.2158203,1.03125,0.9960938,1.03125
        c0.2392578,0,0.4794922-0.0244141,0.6591797-0.0839844v0.7080078c-0.1914062,0.0351562-0.5273438,0.0712891-0.8154297,0.0712891
        C307.5950012,389.6611328,307.1389465,389.1933594,307.1389465,388.1025391z"/>
            <path class="st2" d="M310.6194153,386.4111328c0-2.2431641,1.4394531-3.2744141,2.7705078-3.2744141
        c1.4746094,0,2.578125,1.1279297,2.578125,3.2861328v0.15625h-4.5214844
        c0.0126953,1.5585938,0.8994141,2.4345703,1.9912109,2.4345703c0.9472656,0,1.4873047-0.4082031,1.9667969-1.1513672
        l0.515625,0.4082031c-0.5517578,0.8867188-1.3310547,1.4384766-2.5302734,1.4384766
        C311.9143372,389.7089844,310.6194153,388.5703125,310.6194153,386.4111328z M315.1643372,385.9189453
        c-0.0839844-1.1992188-0.6591797-2.0859375-1.7861328-2.0859375c-0.9121094,0-1.7636719,0.6591797-1.9189453,2.0859375
        H315.1643372z"/>
            <path class="st2" d="M271.0188293,393.7021484h2.2431641c2.890625,0,4.4140625,1.4990234,4.4140625,4.4257812
        s-1.5595703,4.4492188-4.4140625,4.4492188h-2.2431641V393.7021484z M273.3938293,401.8095703
        c2.1953125,0,3.4306641-1.1152344,3.4306641-3.6816406c0-2.5068359-1.2480469-3.6337891-3.4541016-3.6337891h-1.5v7.3154297
        H273.3938293z"/>
            <path class="st2" d="M278.8674622,399.4111328c0-2.2431641,1.4394531-3.2744141,2.7705078-3.2744141
        c1.4755859,0,2.5791016,1.1279297,2.5791016,3.2861328v0.15625h-4.5214844
        c0.0117188,1.5585938,0.8994141,2.4345703,1.9902344,2.4345703c0.9482422,0,1.4873047-0.4082031,1.9677734-1.1513672
        l0.515625,0.4082031c-0.5517578,0.8867188-1.3320312,1.4384766-2.53125,1.4384766
        C280.1633606,402.7089844,278.8674622,401.5703125,278.8674622,399.4111328z M283.4133606,398.9189453
        c-0.0839844-1.1992188-0.6601562-2.0859375-1.7871094-2.0859375c-0.9111328,0-1.7626953,0.6591797-1.9189453,2.0859375
        H283.4133606z"/>
            <path class="st2" d="M285.2151184,401.5703125l0.5283203-0.4804688c0.4794922,0.5517578,1.0908203,0.9121094,1.9667969,0.9121094
        c1.0791016,0,1.6425781-0.3964844,1.6425781-1.1035156c0-0.6953125-0.5029297-0.9716797-1.7382812-1.2597656
        c-1.4511719-0.359375-2.1953125-0.7431641-2.1953125-1.8466797c0-0.8994141,0.7792969-1.6552734,2.1464844-1.6552734
        c1.0800781,0,1.7753906,0.3603516,2.3388672,0.9121094l-0.4677734,0.5517578
        c-0.4794922-0.4804688-1.0791016-0.7802734-1.8466797-0.7802734c-0.9833984,0-1.3671875,0.4560547-1.3671875,0.9355469
        c0,0.6123047,0.4316406,0.8632812,1.5351562,1.1279297c1.5830078,0.3837891,2.3984375,0.7675781,2.3984375,2.0029297
        c0,1.1513672-1.03125,1.8105469-2.4580078,1.8105469C286.5705872,402.6972656,285.6955872,402.2177734,285.2151184,401.5703125z"
            />
            <path class="st2" d="M291.7795715,393.90625h0.875v0.8876953h-0.875V393.90625z M291.803009,396.2568359h0.828125v6.3203125
        h-0.828125V396.2568359z"/>
            <path class="st2" d="M293.9153137,403.4169922c0-0.6474609,0.4326172-1.1513672,1.1640625-1.4394531
        c-0.3837891-0.1552734-0.5634766-0.4199219-0.5634766-0.8037109s0.3115234-0.7070312,0.7675781-0.9472656
        c-0.6005859-0.3837891-0.9599609-1.03125-0.9599609-1.8105469c0-1.34375,1.0673828-2.2792969,2.4951172-2.2792969
        c0.7314453,0,1.3544922,0.2402344,1.7988281,0.6474609c0.3710938-0.2753906,0.9589844-0.515625,1.4628906-0.5751953v0.7792969
        c-0.3720703,0-0.7919922,0.0605469-1.1513672,0.2158203c0.2402344,0.3242188,0.3720703,0.7197266,0.3720703,1.2119141
        c0,1.3789062-1.0800781,2.2421875-2.4824219,2.2421875c-0.3720703,0-0.7080078-0.0595703-1.0195312-0.1796875
        c-0.2998047,0.1201172-0.5039062,0.2998047-0.5039062,0.5400391c0,0.2636719,0.2275391,0.4072266,0.9355469,0.4794922
        l1.3789062,0.1074219c1.4628906,0.1201172,2.2304688,0.6240234,2.2304688,1.6074219
        c0,1.1513672-1.1992188,1.7871094-2.9257812,1.7871094C294.8635559,405,293.9153137,404.3886719,293.9153137,403.4169922z
         M299.0725403,403.2851562c0-0.5996094-0.4794922-0.8994141-1.7265625-0.9960938l-1.2597656-0.0957031l-0.3232422-0.0361328
        c-0.7080078,0.2285156-1.0556641,0.671875-1.0556641,1.1513672c0,0.6601562,0.6953125,1.0439453,2.2910156,1.0439453
        C298.2932434,404.3525391,299.0725403,403.9208984,299.0725403,403.2851562z M298.5207825,398.4277344
        c0-1.0078125-0.6230469-1.6308594-1.7021484-1.6308594c-1.0439453,0-1.6914062,0.6474609-1.6914062,1.6308594
        c0,0.9716797,0.671875,1.5947266,1.703125,1.5947266S298.5207825,399.3994141,298.5207825,398.4277344z"/>
            <path class="st2" d="M301.3791809,396.2568359h0.828125v0.9951172c0.6113281-0.5996094,1.4150391-1.1152344,2.4101562-1.1152344
        c1.2470703,0,1.8828125,0.6962891,1.8828125,1.8710938v4.5693359h-0.8271484v-4.4130859
        c0-0.8876953-0.3955078-1.3193359-1.2597656-1.3193359c-0.8154297,0-1.4990234,0.4199219-2.2060547,1.1035156v4.6289062h-0.828125
        V396.2568359z"/>
</g>
        <g id="brand" class="st1">
            <set
                    attributeName="display"
                    to="inline"
                    begin="all-rot-4.end + 0s"
                    fill="freeze"
            />
            <path class="st2" d="M387.51297,147.1430664h1.1035156l2.9746094,7.7714844h0.0234375l2.9501953-7.7714844h1.1279297v8.875
        h-0.8515625v-7.4360352h-0.0244141c-0.1201172,0.3959961-0.3359375,0.9833984-0.5517578,1.559082l-2.3027344,5.8769531h-0.7792969
        l-2.3027344-5.8769531c-0.2158203-0.5756836-0.359375-0.9472656-0.5517578-1.5830078h-0.0234375v7.4599609H387.51297V147.1430664z
        "/>
            <path class="st2" d="M397.4006653,154.5429688c0-1.2475586,1.0673828-2.1586914,4.2822266-2.6508789v-0.3237305
        c0-0.8754883-0.4560547-1.2949219-1.2832031-1.2949219c-0.9960938,0-1.703125,0.4194336-2.3632812,0.9951172l-0.4433594-0.515625
        c0.7548828-0.6958008,1.6308594-1.175293,2.8779297-1.175293c1.4150391,0,2.0273438,0.7553711,2.0273438,2.0146484v2.8666992
        c0,0.7675781,0.0478516,1.2353516,0.1796875,1.559082h-0.8515625c-0.0839844-0.2636719-0.1435547-0.5395508-0.1435547-0.8994141
        c-0.7324219,0.659668-1.5478516,1.0073242-2.4951172,1.0073242
        C398.0608215,156.1259766,397.4006653,155.5263672,397.4006653,154.5429688z M401.6828918,154.4467773v-1.9667969
        c-2.7109375,0.4555664-3.4667969,1.1274414-3.4667969,1.9550781c0,0.659668,0.4443359,1.0073242,1.1513672,1.0073242
        C400.2551575,155.4423828,401.0344543,155.0708008,401.6828918,154.4467773z"/>
            <path class="st2" d="M404.3489075,149.6977539h0.8271484v1.2470703h0.0244141
        c0.4912109-0.7792969,1.2587891-1.3671875,2.5058594-1.3671875h0.1445312l-0.0839844,0.7675781
        c0,0-0.2275391-0.012207-0.2519531-0.012207c-1.03125,0-1.8466797,0.5756836-2.3388672,1.5712891v4.1137695h-0.8271484
        V149.6977539z"/>
            <path class="st2" d="M409.0891418,147.1430664h0.8271484v5.8886719l3.0107422-3.3339844h0.9716797l-2.0634766,2.2304688
        l2.3144531,4.0898438h-0.8994141l-1.9667969-3.4541016l-1.3671875,1.4633789v1.9907227h-0.8271484V147.1430664z"/>
            <path class="st2" d="M414.8371887,152.8520508c0-2.2431641,1.4394531-3.2744141,2.7705078-3.2744141
        c1.4746094,0,2.578125,1.1274414,2.578125,3.2861328v0.1557617h-4.5214844
        c0.0117188,1.559082,0.8994141,2.4350586,1.9912109,2.4350586c0.9472656,0,1.4873047-0.4082031,1.9667969-1.1513672
        l0.515625,0.4077148c-0.5517578,0.887207-1.3310547,1.4389648-2.5302734,1.4389648
        C416.1321106,156.1499023,414.8371887,155.0107422,414.8371887,152.8520508z M419.3821106,152.3598633
        c-0.0839844-1.1992188-0.6591797-2.0864258-1.7871094-2.0864258c-0.9111328,0-1.7626953,0.659668-1.9189453,2.0864258H419.3821106
        z"/>
            <path class="st2" d="M421.7483215,149.6977539h0.828125v0.9951172c0.6113281-0.5996094,1.4150391-1.1152344,2.4101562-1.1152344
        c1.2470703,0,1.8828125,0.6958008,1.8828125,1.8710938v4.5693359h-0.8271484v-4.4135742
        c0-0.8876953-0.3955078-1.3193359-1.2597656-1.3193359c-0.8154297,0-1.4990234,0.4199219-2.2060547,1.1035156v4.6293945h-0.828125
        V149.6977539z"/>
            <path class="st2" d="M428.553009,151.8920898h2.6982422v0.7197266h-2.6982422V151.8920898z"/>
            <path class="st2" d="M376.8694153,165.8520508c0-2.2431641,1.4394531-3.2744141,2.7705078-3.2744141
        c1.4755859,0,2.5791016,1.1274414,2.5791016,3.2861328v0.1557617h-4.5214844
        c0.0117188,1.559082,0.8994141,2.4350586,1.9902344,2.4350586c0.9482422,0,1.4873047-0.4082031,1.9677734-1.1513672
        l0.515625,0.4077148c-0.5517578,0.887207-1.3320312,1.4389648-2.53125,1.4389648
        C378.1653137,169.1499023,376.8694153,168.0107422,376.8694153,165.8520508z M381.4153137,165.3598633
        c-0.0839844-1.1992188-0.6601562-2.0864258-1.7871094-2.0864258c-0.9111328,0-1.7626953,0.659668-1.9189453,2.0864258H381.4153137
        z"/>
            <path class="st2" d="M383.7815247,162.6977539h0.8271484v0.9951172c0.6113281-0.5996094,1.4150391-1.1152344,2.4111328-1.1152344
        c1.2470703,0,1.8828125,0.6958008,1.8828125,1.8710938v4.5693359h-0.828125v-4.4135742
        c0-0.8876953-0.3955078-1.3193359-1.2587891-1.3193359c-0.8154297,0-1.4990234,0.4199219-2.2070312,1.1035156v4.6293945
        h-0.8271484V162.6977539z"/>
            <path class="st2" d="M391.184845,167.5429688v-4.1376953h-1.1035156v-0.7075195h1.1035156v-2.2670898h0.828125v2.2670898
        h1.6425781v0.7075195H392.01297V167.375c0,0.6713867,0.2158203,1.03125,0.9951172,1.03125
        c0.2402344,0,0.4794922-0.0239258,0.6601562-0.0839844v0.7080078c-0.1923828,0.0356445-0.5283203,0.0717773-0.8164062,0.0717773
        C391.6408997,169.1020508,391.184845,168.6342773,391.184845,167.5429688z"/>
            <path class="st2" d="M394.3059387,162.6977539h0.8632812l0.8876953,3.1298828
        c0.2275391,0.8037109,0.3720703,1.331543,0.5878906,2.1469727h0.0234375
        c0.2285156-0.8994141,0.3476562-1.3432617,0.5761719-2.1469727l0.8632812-3.1298828h0.7558594l0.875,3.1899414
        c0.2285156,0.7675781,0.3476562,1.2592773,0.5517578,2.0869141h0.0244141
        c0.2275391-0.8515625,0.3476562-1.2954102,0.5751953-2.0629883l0.9238281-3.2138672h0.8037109l-1.9433594,6.3203125h-0.7675781
        l-1.4267578-5.1933594h-0.0244141l-1.4511719,5.1933594h-0.7558594L394.3059387,162.6977539z"/>
            <path class="st2" d="M403.9533997,160.3466797h0.875v0.8876953h-0.875V160.3466797z M403.9768372,162.6977539h0.828125v6.3203125
        h-0.828125V162.6977539z"/>
            <path class="st2" d="M406.4250793,165.8637695c0-2.2666016,1.4033203-3.2861328,2.8183594-3.2861328
        c1.3554688,0,2.0273438,0.8037109,2.4228516,1.7270508l-0.7070312,0.3120117
        c-0.3486328-0.8515625-0.8515625-1.331543-1.7392578-1.331543c-0.9355469,0-1.9667969,0.671875-1.9667969,2.5668945
        c0,1.6547852,0.8388672,2.590332,1.9423828,2.590332c0.8759766,0,1.3671875-0.4077148,1.8115234-1.3432617l0.6708984,0.2880859
        c-0.5029297,1.0673828-1.234375,1.7626953-2.5185547,1.7626953
        C407.7082825,169.1499023,406.4250793,167.9624023,406.4250793,165.8637695z"/>
            <path class="st2" d="M413.1575012,160.1430664h0.8271484v5.8886719l3.0107422-3.3339844h0.9716797l-2.0634766,2.2304688
        l2.3144531,4.0898438h-0.8994141l-1.9667969-3.4541016l-1.3671875,1.4633789v1.9907227h-0.8271484V160.1430664z"/>
            <path class="st2" d="M419.5891418,160.1430664h0.8271484v8.875h-0.8271484V160.1430664z"/>
            <path class="st2" d="M422.3371887,167.2670898v-4.5693359h0.8271484v4.425293
        c0,0.8876953,0.3837891,1.3193359,1.2597656,1.3193359c0.8037109,0,1.4873047-0.4316406,2.1943359-1.1035156v-4.6411133h0.8398438
        v6.3203125h-0.8398438v-0.9956055c-0.6113281,0.5996094-1.4150391,1.1274414-2.3984375,1.1274414
        C422.9602356,169.1499023,422.3371887,168.4423828,422.3371887,167.2670898z"/>
            <path class="st2" d="M429.3684387,162.6977539h0.828125v0.9951172c0.6113281-0.5996094,1.4150391-1.1152344,2.4101562-1.1152344
        c1.2470703,0,1.8828125,0.6958008,1.8828125,1.8710938v4.5693359h-0.8271484v-4.4135742
        c0-0.8876953-0.3955078-1.3193359-1.2597656-1.3193359c-0.8154297,0-1.4990234,0.4199219-2.2060547,1.1035156v4.6293945h-0.828125
        V162.6977539z"/>
            <path class="st2" d="M435.6448059,169.8574219c0-0.6474609,0.4326172-1.1513672,1.1640625-1.4389648
        c-0.3837891-0.1557617-0.5644531-0.4199219-0.5644531-0.8037109s0.3125-0.7075195,0.7675781-0.9472656
        c-0.5996094-0.3837891-0.9589844-1.0317383-0.9589844-1.8110352c0-1.3432617,1.0673828-2.2788086,2.4941406-2.2788086
        c0.7324219,0,1.3554688,0.2397461,1.7998047,0.6474609c0.3710938-0.2758789,0.9589844-0.515625,1.4628906-0.5756836v0.7797852
        c-0.3720703,0-0.7919922,0.0600586-1.1513672,0.2158203c0.2402344,0.3237305,0.3720703,0.7197266,0.3720703,1.2114258
        c0,1.3793945-1.0800781,2.2426758-2.4833984,2.2426758c-0.3710938,0-0.7070312-0.0600586-1.0185547-0.1796875
        c-0.2998047,0.1196289-0.5039062,0.2998047-0.5039062,0.5395508c0,0.2636719,0.2275391,0.4077148,0.9355469,0.4794922
        l1.3789062,0.1079102c1.4628906,0.1201172,2.2304688,0.6240234,2.2304688,1.6074219
        c0,1.1513672-1.1992188,1.7871094-2.9257812,1.7871094C436.5930481,171.440918,435.6448059,170.8291016,435.6448059,169.8574219z
         M440.8020325,169.7255859c0-0.5996094-0.4794922-0.8994141-1.7265625-0.9956055l-1.2597656-0.0957031l-0.3232422-0.0361328
        c-0.7080078,0.2280273-1.0556641,0.671875-1.0556641,1.1513672c0,0.659668,0.6953125,1.043457,2.2910156,1.043457
        C440.0227356,170.7929688,440.8020325,170.3613281,440.8020325,169.7255859z M440.2502747,164.8681641
        c0-1.0073242-0.6230469-1.6308594-1.703125-1.6308594c-1.0429688,0-1.6904297,0.6474609-1.6904297,1.6308594
        c0,0.9716797,0.671875,1.5952148,1.703125,1.5952148S440.2502747,165.8398438,440.2502747,164.8681641z"/>
</g>
        <g id="art" class="st1">
            <set
                    attributeName="display"
                    to="inline"
                    begin="all-rot-4.end + 0s"
                    fill="freeze"
            />
            <path class="st2" d="M43.4822235,147.1069336h0.9233398l3.1420898,8.9111328h-0.887207l-0.9477539-2.734375H42.115036
        l-0.9477539,2.734375h-0.8276367L43.4822235,147.1069336z M45.4490204,152.527832l-1.5234375-4.4135742h-0.0239258
        l-1.5229492,4.4135742H45.4490204z"/>
            <path class="st2" d="M48.943161,149.6977539h0.8276367v1.2470703h0.0239258
        c0.4916992-0.7792969,1.2592773-1.3671875,2.5068359-1.3671875h0.1435547l-0.0839844,0.7675781
        c0,0-0.2275391-0.012207-0.2519531-0.012207c-1.03125,0-1.8466797,0.5756836-2.3383789,1.5712891v4.1137695H48.943161V149.6977539
        z"/>
            <path class="st2" d="M54.115036,154.5429688v-4.1376953h-1.1035156v-0.7075195h1.1035156v-2.2670898h0.8276367v2.2670898
        h1.6430664v0.7075195h-1.6430664V154.375c0,0.6713867,0.2158203,1.03125,0.9956055,1.03125
        c0.2397461,0,0.4794922-0.0239258,0.659668-0.0839844v0.7080078c-0.1918945,0.0356445-0.527832,0.0717773-0.815918,0.0717773
        C54.5710907,156.1020508,54.115036,155.6342773,54.115036,154.5429688z"/>
            <path class="st2" d="M24.7151337,160.1430664h2.2431641c2.8901367,0,4.4135742,1.4990234,4.4135742,4.425293
        c0,2.9267578-1.5595703,4.449707-4.4135742,4.449707h-2.2431641V160.1430664z M27.0901337,168.2504883
        c2.1948242,0,3.4301758-1.1152344,3.4301758-3.6821289c0-2.5063477-1.2475586-3.6337891-3.4541016-3.6337891h-1.4995117v7.315918
        H27.0901337z"/>
            <path class="st2" d="M33.0911102,160.3466797h0.8754883v0.8876953h-0.8754883V160.3466797z M33.115036,162.6977539h0.8276367
        v6.3203125H33.115036V162.6977539z"/>
            <path class="st2" d="M35.9231415,162.6977539h0.8276367v1.2470703h0.0239258
        c0.4916992-0.7792969,1.2592773-1.3671875,2.5063477-1.3671875h0.144043l-0.0839844,0.7675781
        c0,0-0.2275391-0.012207-0.2514648-0.012207c-1.0317383,0-1.847168,0.5756836-2.3388672,1.5712891v4.1137695h-0.8276367
        V162.6977539z"/>
            <path class="st2" d="M39.955368,165.8520508c0-2.2431641,1.4394531-3.2744141,2.7705078-3.2744141
        c1.4750977,0,2.5786133,1.1274414,2.5786133,3.2861328v0.1557617h-4.5214844
        c0.0117188,1.559082,0.8994141,2.4350586,1.9907227,2.4350586c0.9477539,0,1.4873047-0.4082031,1.9672852-1.1513672
        l0.515625,0.4077148c-0.5517578,0.887207-1.331543,1.4389648-2.5307617,1.4389648
        C41.2507782,169.1499023,39.955368,168.0107422,39.955368,165.8520508z M44.5007782,165.3598633
        c-0.0839844-1.1992188-0.659668-2.0864258-1.7871094-2.0864258c-0.9111328,0-1.7626953,0.659668-1.9189453,2.0864258H44.5007782z"
            />
            <path class="st2" d="M46.5071259,165.8637695c0-2.2666016,1.4033203-3.2861328,2.8183594-3.2861328
        c1.3554688,0,2.0268555,0.8037109,2.4228516,1.7270508l-0.7075195,0.3120117
        c-0.3481445-0.8515625-0.8515625-1.331543-1.7392578-1.331543c-0.9355469,0-1.9667969,0.671875-1.9667969,2.5668945
        c0,1.6547852,0.8393555,2.590332,1.9428711,2.590332c0.8754883,0,1.3671875-0.4077148,1.8110352-1.3432617l0.671875,0.2880859
        c-0.5039062,1.0673828-1.2353516,1.7626953-2.519043,1.7626953
        C47.790329,169.1499023,46.5071259,167.9624023,46.5071259,165.8637695z"/>
            <path class="st2" d="M53.6707001,167.5429688v-4.1376953h-1.1035156v-0.7075195h1.1035156v-2.2670898h0.8276367v2.2670898
        h1.6430664v0.7075195h-1.6430664V167.375c0,0.6713867,0.2158203,1.03125,0.9956055,1.03125
        c0.2397461,0,0.4794922-0.0239258,0.659668-0.0839844v0.7080078c-0.1918945,0.0356445-0.527832,0.0717773-0.815918,0.0717773
        C54.1267548,169.1020508,53.6707001,168.6342773,53.6707001,167.5429688z"/>
            <path class="st2" d="M57.6667938,160.3466797h0.8754883v0.8876953h-0.8754883V160.3466797z M57.6907196,162.6977539h0.8276367
        v6.3203125h-0.8276367V162.6977539z"/>
            <path class="st2" d="M60.1389618,165.8637695c0-2.1108398,1.3071289-3.2861328,2.8666992-3.2861328
        c1.546875,0,2.8540039,1.175293,2.8540039,3.2861328c0,2.0986328-1.3071289,3.2861328-2.8540039,3.2861328
        C61.4582977,169.1499023,60.1389618,167.9624023,60.1389618,165.8637695z M65.0325165,165.8520508
        c0-1.3793945-0.6958008-2.5668945-2.0268555-2.5668945c-1.2836914,0-2.0390625,1.0795898-2.0390625,2.5668945
        c0,1.402832,0.6835938,2.590332,2.0390625,2.590332C64.2766571,168.4423828,65.0325165,167.375,65.0325165,165.8520508z"/>
            <path class="st2" d="M67.4226532,162.6977539h0.8276367v0.9951172c0.6118164-0.5996094,1.4150391-1.1152344,2.4106445-1.1152344
        c1.2470703,0,1.8828125,0.6958008,1.8828125,1.8710938v4.5693359h-0.8276367v-4.4135742
        c0-0.8876953-0.3955078-1.3193359-1.2592773-1.3193359c-0.8154297,0-1.4990234,0.4199219-2.206543,1.1035156v4.6293945h-0.8276367
        V162.6977539z"/>
</g>
        <g id="digital" class="st1">
            <set
                    attributeName="display"
                    to="inline"
                    begin="all-rot-4.end + 0s"
                    fill="freeze"
            />
            <path class="st2" d="M389.6672668,283.9658203h2.2431641c2.8896484,0,4.4130859,1.4990234,4.4130859,4.4257812
        s-1.5595703,4.4492188-4.4130859,4.4492188h-2.2431641V283.9658203z M392.0422668,292.0732422
        c2.1943359,0,3.4296875-1.1152344,3.4296875-3.6816406c0-2.5068359-1.2470703-3.6337891-3.4541016-3.6337891h-1.4990234v7.3154297
        H392.0422668z"/>
            <path class="st2" d="M398.0432434,284.1699219h0.875v0.8876953h-0.875V284.1699219z M398.0666809,286.5205078h0.828125v6.3203125
        h-0.828125V286.5205078z"/>
            <path class="st2" d="M400.1789856,293.6806641c0-0.6474609,0.4326172-1.1513672,1.1640625-1.4394531
        c-0.3837891-0.1552734-0.5644531-0.4199219-0.5644531-0.8037109s0.3125-0.7070312,0.7675781-0.9472656
        c-0.5996094-0.3837891-0.9589844-1.03125-0.9589844-1.8105469c0-1.34375,1.0673828-2.2792969,2.4941406-2.2792969
        c0.7324219,0,1.3554688,0.2402344,1.7998047,0.6474609c0.3710938-0.2753906,0.9589844-0.515625,1.4628906-0.5751953v0.7792969
        c-0.3720703,0-0.7919922,0.0605469-1.1513672,0.2158203c0.2402344,0.3242188,0.3720703,0.7197266,0.3720703,1.2119141
        c0,1.3789062-1.0800781,2.2421875-2.4833984,2.2421875c-0.3710938,0-0.7070312-0.0595703-1.0185547-0.1796875
        c-0.2998047,0.1201172-0.5039062,0.2998047-0.5039062,0.5400391c0,0.2636719,0.2275391,0.4072266,0.9355469,0.4794922
        l1.3789062,0.1074219c1.4628906,0.1201172,2.2304688,0.6240234,2.2304688,1.6074219
        c0,1.1513672-1.1992188,1.7871094-2.9257812,1.7871094C401.1272278,295.2636719,400.1789856,294.6523438,400.1789856,293.6806641z
         M405.3362122,293.5488281c0-0.5996094-0.4794922-0.8994141-1.7265625-0.9960938l-1.2597656-0.0957031l-0.3232422-0.0361328
        c-0.7080078,0.2285156-1.0556641,0.671875-1.0556641,1.1513672c0,0.6601562,0.6953125,1.0439453,2.2910156,1.0439453
        C404.5569153,294.6162109,405.3362122,294.1845703,405.3362122,293.5488281z M404.7844543,288.6914062
        c0-1.0078125-0.6230469-1.6308594-1.703125-1.6308594c-1.0429688,0-1.6904297,0.6474609-1.6904297,1.6308594
        c0,0.9716797,0.671875,1.5947266,1.703125,1.5947266S404.7844543,289.6630859,404.7844543,288.6914062z"/>
            <path class="st2" d="M407.6907043,284.1699219h0.8759766v0.8876953h-0.8759766V284.1699219z M407.7151184,286.5205078h0.8271484
        v6.3203125h-0.8271484V286.5205078z"/>
            <path class="st2" d="M410.9543762,291.3662109v-4.1376953h-1.1035156v-0.7080078h1.1035156v-2.2666016h0.828125v2.2666016
        h1.6425781v0.7080078h-1.6425781v3.9697266c0,0.6708984,0.2158203,1.03125,0.9951172,1.03125
        c0.2402344,0,0.4794922-0.0244141,0.6601562-0.0839844v0.7080078c-0.1923828,0.0351562-0.5283203,0.0712891-0.8164062,0.0712891
        C411.4104309,292.9248047,410.9543762,292.4570312,410.9543762,291.3662109z"/>
            <path class="st2" d="M414.4709778,291.3662109c0-1.2480469,1.0673828-2.1591797,4.2822266-2.6513672v-0.3232422
        c0-0.8759766-0.4560547-1.2949219-1.2832031-1.2949219c-0.9960938,0-1.703125,0.4189453-2.3632812,0.9951172l-0.4433594-0.515625
        c0.7548828-0.6962891,1.6308594-1.1757812,2.8779297-1.1757812c1.4150391,0,2.0273438,0.7558594,2.0273438,2.0146484v2.8671875
        c0,0.7675781,0.0478516,1.2353516,0.1796875,1.5585938h-0.8515625c-0.0839844-0.2636719-0.1435547-0.5390625-0.1435547-0.8994141
        c-0.7324219,0.6601562-1.5478516,1.0078125-2.4951172,1.0078125
        C415.131134,292.9492188,414.4709778,292.3496094,414.4709778,291.3662109z M418.7532043,291.2695312v-1.9667969
        c-2.7109375,0.4560547-3.4667969,1.1279297-3.4667969,1.9550781c0,0.6601562,0.4443359,1.0078125,1.1513672,1.0078125
        C417.32547,292.265625,418.1047668,291.8935547,418.7532043,291.2695312z"/>
            <path class="st2" d="M421.490509,283.9658203h0.828125v8.875h-0.828125V283.9658203z"/>
            <path class="st2" d="M423.9387512,289.6748047c0-2.2431641,1.4394531-3.2744141,2.7705078-3.2744141
        c1.4755859,0,2.5791016,1.1279297,2.5791016,3.2861328v0.15625h-4.5214844
        c0.0117188,1.5585938,0.8994141,2.4345703,1.9902344,2.4345703c0.9482422,0,1.4873047-0.4082031,1.9677734-1.1513672
        l0.515625,0.4082031c-0.5517578,0.8867188-1.3320312,1.4384766-2.53125,1.4384766
        C425.2346497,292.9726562,423.9387512,291.8339844,423.9387512,289.6748047z M428.4846497,289.1826172
        c-0.0839844-1.1992188-0.6601562-2.0859375-1.7871094-2.0859375c-0.9111328,0-1.7626953,0.6591797-1.9189453,2.0859375
        H428.4846497z"/>
            <path class="st2" d="M393.1408997,296.9658203h1.1035156l2.9746094,7.7714844h0.0234375l2.9501953-7.7714844h1.1279297v8.875
        h-0.8515625v-7.4355469h-0.0244141c-0.1201172,0.3955078-0.3359375,0.9833984-0.5517578,1.5585938l-2.3027344,5.8769531
        h-0.7792969l-2.3027344-5.8769531c-0.2158203-0.5751953-0.359375-0.9472656-0.5517578-1.5830078h-0.0234375v7.4599609h-0.7919922
        V296.9658203z"/>
            <path class="st2" d="M403.028595,304.3662109c0-1.2480469,1.0673828-2.1591797,4.2822266-2.6513672v-0.3232422
        c0-0.8759766-0.4560547-1.2949219-1.2832031-1.2949219c-0.9960938,0-1.703125,0.4189453-2.3632812,0.9951172l-0.4433594-0.515625
        c0.7548828-0.6962891,1.6308594-1.1757812,2.8779297-1.1757812c1.4150391,0,2.0273438,0.7558594,2.0273438,2.0146484v2.8671875
        c0,0.7675781,0.0478516,1.2353516,0.1796875,1.5585938h-0.8515625c-0.0839844-0.2636719-0.1435547-0.5390625-0.1435547-0.8994141
        c-0.7324219,0.6601562-1.5478516,1.0078125-2.4951172,1.0078125
        C403.6887512,305.9492188,403.028595,305.3496094,403.028595,304.3662109z M407.3108215,304.2695312v-1.9667969
        c-2.7109375,0.4560547-3.4667969,1.1279297-3.4667969,1.9550781c0,0.6601562,0.4443359,1.0078125,1.1513672,1.0078125
        C405.8830872,305.265625,406.662384,304.8935547,407.3108215,304.2695312z"/>
            <path class="st2" d="M409.9768372,299.5205078h0.8271484v1.2470703h0.0244141
        c0.4912109-0.7792969,1.2587891-1.3671875,2.5058594-1.3671875h0.1445312l-0.0839844,0.7675781
        c0,0-0.2275391-0.0117188-0.2519531-0.0117188c-1.03125,0-1.8466797,0.5751953-2.3388672,1.5712891v4.1132812h-0.8271484
        V299.5205078z"/>
            <path class="st2" d="M414.7170715,296.9658203h0.8271484v5.8886719l3.0107422-3.3339844h0.9716797l-2.0634766,2.2304688
        l2.3144531,4.0898438h-0.8994141l-1.9667969-3.4541016l-1.3671875,1.4638672v1.9902344h-0.8271484V296.9658203z"/>
            <path class="st2" d="M420.4651184,302.6748047c0-2.2431641,1.4394531-3.2744141,2.7705078-3.2744141
        c1.4746094,0,2.578125,1.1279297,2.578125,3.2861328v0.15625h-4.5214844
        c0.0117188,1.5585938,0.8994141,2.4345703,1.9912109,2.4345703c0.9472656,0,1.4873047-0.4082031,1.9667969-1.1513672
        l0.515625,0.4082031c-0.5517578,0.8867188-1.3310547,1.4384766-2.5302734,1.4384766
        C421.7600403,305.9726562,420.4651184,304.8339844,420.4651184,302.6748047z M425.0100403,302.1826172
        c-0.0839844-1.1992188-0.6591797-2.0859375-1.7871094-2.0859375c-0.9111328,0-1.7626953,0.6591797-1.9189453,2.0859375
        H425.0100403z"/>
        </g>
        <g id="web" class="st1">
            <set
                    attributeName="display"
                    to="inline"
                    begin="all-rot-4.end + 0s"
                    fill="freeze"
            />
            <path class="st2" d="M37.021286,283.9658203h0.8637695l1.3793945,5.3847656
        c0.2158203,0.8164062,0.4077148,1.6191406,0.5395508,2.2314453h0.0239258
        c0.1201172-0.5996094,0.3120117-1.4150391,0.515625-2.21875l1.3193359-5.3974609h0.8994141l1.3432617,5.4453125
        c0.2041016,0.8037109,0.3837891,1.4990234,0.5039062,2.1708984h0.0239258
        c0.1557617-0.7080078,0.3237305-1.34375,0.515625-2.1347656l1.3916016-5.4814453h0.8154297l-2.3505859,8.875h-0.8037109
        l-1.8828125-7.6992188h-0.0244141l-1.9067383,7.6992188H39.384079L37.021286,283.9658203z"/>
            <path class="st2" d="M47.4011688,289.6748047c0-2.2431641,1.4394531-3.2744141,2.7705078-3.2744141
        c1.4750977,0,2.5786133,1.1279297,2.5786133,3.2861328v0.15625h-4.5214844
        c0.012207,1.5585938,0.8994141,2.4345703,1.9907227,2.4345703c0.9477539,0,1.4873047-0.4082031,1.9672852-1.1513672
        l0.515625,0.4082031c-0.5517578,0.8867188-1.331543,1.4384766-2.5307617,1.4384766
        C48.696579,292.9726562,47.4011688,291.8339844,47.4011688,289.6748047z M51.946579,289.1826172
        c-0.0839844-1.1992188-0.659668-2.0859375-1.7866211-2.0859375c-0.9116211,0-1.7631836,0.6591797-1.9189453,2.0859375H51.946579z"
            />
            <path class="st2" d="M55.1409149,291.9775391v0.8632812h-0.8276367v-8.875h0.8276367v3.4785156
        c0.503418-0.5644531,1.1630859-1.0439453,2.1108398-1.0439453c1.4511719,0,2.6025391,1.0673828,2.6025391,3.2744141
        s-1.1635742,3.2744141-2.6748047,3.2744141C56.3640594,292.9492188,55.7043915,292.5527344,55.1409149,291.9775391z
         M59.0266571,289.6865234c0-1.7509766-0.8632812-2.578125-1.9189453-2.578125
        c-0.7797852,0-1.3671875,0.4072266-1.9667969,1.0429688v3.0703125c0.6235352,0.6601562,1.2353516,1.03125,1.9667969,1.03125
        C58.2229462,292.2529297,59.0266571,291.4736328,59.0266571,289.6865234z"/>
            <path class="st2" d="M30.8889618,296.9658203h2.2431641c2.8901367,0,4.4135742,1.4990234,4.4135742,4.4257812
        s-1.5595703,4.4492188-4.4135742,4.4492188h-2.2431641V296.9658203z M33.2639618,305.0732422
        c2.1948242,0,3.4301758-1.1152344,3.4301758-3.6816406c0-2.5068359-1.2475586-3.6337891-3.4541016-3.6337891h-1.4995117v7.3154297
        H33.2639618z"/>
            <path class="st2" d="M38.7375946,302.6748047c0-2.2431641,1.4394531-3.2744141,2.7705078-3.2744141
        c1.4750977,0,2.5786133,1.1279297,2.5786133,3.2861328v0.15625h-4.5214844
        c0.0117188,1.5585938,0.8994141,2.4345703,1.9907227,2.4345703c0.9477539,0,1.4873047-0.4082031,1.9672852-1.1513672
        l0.515625,0.4082031c-0.5517578,0.8867188-1.331543,1.4384766-2.5307617,1.4384766
        C40.0330048,305.9726562,38.7375946,304.8339844,38.7375946,302.6748047z M43.2830048,302.1826172
        c-0.0839844-1.1992188-0.659668-2.0859375-1.7871094-2.0859375c-0.9111328,0-1.7626953,0.6591797-1.9189453,2.0859375H43.2830048z
        "/>
            <path class="st2" d="M45.0852509,304.8339844l0.527832-0.4804688c0.4794922,0.5517578,1.0913086,0.9121094,1.9667969,0.9121094
        c1.0795898,0,1.6430664-0.3964844,1.6430664-1.1035156c0-0.6953125-0.503418-0.9716797-1.7387695-1.2597656
        c-1.4511719-0.359375-2.1948242-0.7431641-2.1948242-1.8466797c0-0.8994141,0.7792969-1.6552734,2.1464844-1.6552734
        c1.0795898,0,1.7753906,0.3603516,2.3388672,0.9121094l-0.4677734,0.5517578
        c-0.4794922-0.4804688-1.0791016-0.7802734-1.8466797-0.7802734c-0.9838867,0-1.3676758,0.4560547-1.3676758,0.9355469
        c0,0.6123047,0.4321289,0.8632812,1.5351562,1.1279297c1.5834961,0.3837891,2.3989258,0.7675781,2.3989258,2.0029297
        c0,1.1513672-1.03125,1.8105469-2.4584961,1.8105469C46.4407196,305.9609375,45.5652313,305.4814453,45.0852509,304.8339844z"/>
            <path class="st2" d="M51.6492157,297.1699219h0.8754883v0.8876953h-0.8754883V297.1699219z M51.6731415,299.5205078h0.8276367
        v6.3203125h-0.8276367V299.5205078z"/>
            <path class="st2" d="M53.7854462,306.6806641c0-0.6474609,0.4321289-1.1513672,1.1635742-1.4394531
        c-0.3837891-0.1552734-0.5634766-0.4199219-0.5634766-0.8037109s0.3115234-0.7070312,0.7675781-0.9472656
        c-0.6000977-0.3837891-0.9599609-1.03125-0.9599609-1.8105469c0-1.34375,1.0678711-2.2792969,2.4951172-2.2792969
        c0.7314453,0,1.3549805,0.2402344,1.7988281,0.6474609c0.371582-0.2753906,0.9594727-0.515625,1.4628906-0.5751953v0.7792969
        c-0.371582,0-0.7915039,0.0605469-1.1513672,0.2158203c0.2402344,0.3242188,0.3720703,0.7197266,0.3720703,1.2119141
        c0,1.3789062-1.0795898,2.2421875-2.4824219,2.2421875c-0.3720703,0-0.7080078-0.0595703-1.0195312-0.1796875
        c-0.2998047,0.1201172-0.5039062,0.2998047-0.5039062,0.5400391c0,0.2636719,0.2280273,0.4072266,0.9355469,0.4794922
        l1.3793945,0.1074219c1.4628906,0.1201172,2.2304688,0.6240234,2.2304688,1.6074219
        c0,1.1513672-1.1992188,1.7871094-2.9262695,1.7871094C54.7332001,308.2636719,53.7854462,307.6523438,53.7854462,306.6806641z
         M58.9426727,306.5488281c0-0.5996094-0.4794922-0.8994141-1.7270508-0.9960938l-1.2592773-0.0957031l-0.3237305-0.0361328
        c-0.7075195,0.2285156-1.0556641,0.671875-1.0556641,1.1513672c0,0.6601562,0.6958008,1.0439453,2.2910156,1.0439453
        C58.1633759,307.6162109,58.9426727,307.1845703,58.9426727,306.5488281z M58.3909149,301.6914062
        c0-1.0078125-0.6235352-1.6308594-1.7026367-1.6308594c-1.043457,0-1.6914062,0.6474609-1.6914062,1.6308594
        c0,0.9716797,0.671875,1.5947266,1.703125,1.5947266S58.3909149,302.6630859,58.3909149,301.6914062z"/>
            <path class="st2" d="M61.2493134,299.5205078h0.8276367v0.9951172c0.6113281-0.5996094,1.4150391-1.1152344,2.4106445-1.1152344
        c1.2470703,0,1.8828125,0.6962891,1.8828125,1.8710938v4.5693359h-0.8276367v-4.4130859
        c0-0.8876953-0.3955078-1.3193359-1.2592773-1.3193359c-0.8154297,0-1.4990234,0.4199219-2.206543,1.1035156v4.6289062h-0.8276367
        V299.5205078z"/>
</g>
    </g>
    <g id="diamond">
        <animateTransform
                id="all-rot-1"
                attributeName="transform"
                type="rotate"
                from="0 226.5698242 225.84780885"
                to="45 226.5698242 225.84780885"
                begin="0.25s"
                dur="0.25s"
                fill="freeze"
        />
        <animateTransform
                id="all-rot-2"
                attributeName="transform"
                type="rotate"
                from="45 226.5698242 225.84780885"
                to="90 226.5698242 225.84780885"
                begin="all-rot-1.end + 0.1s"
                dur="0.25s"
                fill="freeze"
        />
        <animateTransform
                id="all-rot-3"
                attributeName="transform"
                type="rotate"
                from="90 226.5698242 225.84780885"
                to="-45 226.5698242 225.84780885"
                begin="all-rot-2.end + 0.1s"
                dur="0.75s"
                fill="freeze"
        />
        <animateTransform
                id="all-rot-4"
                attributeName="transform"
                type="rotate"
                from="-45 226.5698242 225.84780885"
                to="0 226.5698242 225.84780885"
                begin="all-rot-3.end + 0.1s"
                dur="0.25s"
                fill="freeze"
        />
        <path class="st3" d="M300.0007019,369.1766052"/>
        <rect x="117.2643585" y="118.6932068" transform="matrix(0.9328079 0.3603739 -0.3603739 0.9328079 97.1828766 -66.1891785)" class="st3" width="217.6492462" height="217.6492462"/>
        <rect x="117.2643585" y="118.6932068" transform="matrix(-0.9328079 0.3603739 -0.3603739 -0.9328079 518.9780884 358.2716675)" class="st3" width="217.6492462" height="217.6492462"/>
        <polygon class="st3" points="163.7940674,86.787796 288.3838806,86.787796 366.8190002,165.2229156 366.8190002,289.8127441 288.3838806,368.2478638 163.7940674,368.2478638 85.3589554,289.8127441 85.3589554,165.2229156 	"/>
        <line class="st3" x1="309.6787109" y1="143.6750946" x2="142.5306854" y2="311.5451355"/>
        <line class="st3" x1="108.9566803" y1="228.1516266" x2="341.8086548" y2="227.7906189"/>
        <line class="st3" x1="226.6462097" y1="344.0361023" x2="225.9241943" y2="110.1010818"/>
        <line class="st3" x1="310.0397034" y1="310.8230896" x2="141.80867" y2="143.3140869"/>
        </g>

    <g id="badge">
        <circle class="st4" cx="227.7501831" cy="228.0779419" r="65.5812607"/>
        <path class="st2" d="M198.049118,203.0029297l3.5527344-2.2084961c1.0556641,1.7041016,2.8085938,2.6884766,4.65625,2.6884766c1.4638672,0,2.5683594-0.4321289,2.5683594-1.5361328c0-1.128418-1.4160156-1.5600586-3.1679688-1.9921875c-2.9042969-0.7441406-6.7685547-1.4882812-6.7685547-5.5205078c0-3.6245117,2.7353516-5.6166992,6.7685547-5.6166992c3.7675781,0,6.0244141,1.7524414,7.4404297,3.4804688l-3.2167969,2.6401367c-0.9833984-1.2001953-2.7119141-2.2319336-4.2480469-2.2319336c-1.3681641,0-2.0644531,0.4555664-2.0644531,1.2958984c0,1.1762695,1.3925781,1.6079102,3.1445312,2.0400391c2.9042969,0.6962891,6.7929688,1.5844727,6.7929688,5.5683594c0,2.8325195-1.9921875,5.640625-7.4648438,5.640625C201.9856415,207.2509766,199.5618134,205.4267578,198.049118,203.0029297z"/>
        <path class="st2" d="M219.2180634,206.9150391v-13.7773438h-5.1123047v-3.984375h15.0253906v3.984375h-5.1123047v13.7773438H219.2180634z"/>
        <path class="st2" d="M230.5930634,199.7866211v-10.6333008h4.8007812v10.6088867c0,2.4482422,0.7919922,3.5527344,2.7119141,3.5527344c1.9208984,0,2.6884766-1.1044922,2.6884766-3.5527344v-10.6088867h4.7041016v10.6333008c0,4.7041016-2.2558594,7.3925781-7.4404297,7.3925781S230.5930634,204.4907227,230.5930634,199.7866211z"/>
        <path class="st2" d="M199.0579071,226.9150391v-17.7617188h5.8320312c5.2802734,0,9.7685547,2.0166016,9.7685547,8.7607422c0,6.9848633-4.5595703,9.0009766-9.7685547,9.0009766H199.0579071z M203.8342743,223.0507812h1.3193359c3.625,0,4.7050781-1.4882812,4.7050781-5.0883789c0-3.2885742-1.1044922-4.824707-4.7529297-4.824707h-1.2714844V223.0507812z"/>
        <path class="st2" d="M217.033493,226.9150391v-17.7617188h4.7998047v17.7617188H217.033493z"/>
        <path class="st2" d="M224.2092743,218.0341797c0-6.5043945,4.4404297-9.2167969,8.7363281-9.2167969c4.2724609,0,8.7128906,2.7124023,8.7128906,9.2167969c0,6.5048828-4.4404297,9.2167969-8.7128906,9.2167969C228.649704,227.2509766,224.2092743,224.5390625,224.2092743,218.0341797z M236.8586884,218.0341797c0-3.2641602-1.4169922-5.2563477-3.9130859-5.2563477c-2.5195312,0-3.9355469,1.9921875-3.9355469,5.2563477s1.4160156,5.3764648,3.9355469,5.3764648C235.4416962,223.4106445,236.8586884,221.2983398,236.8586884,218.0341797z"/>
        <path class="st2" d="M199.0579071,246.9150391v-17.7617188h6.6484375c3.7919922,0,7.6806641,0.7929688,7.6806641,6.0488281c0,5.2568359-4.2001953,6.0488281-7.6806641,6.0488281h-1.8964844v5.6640625H199.0579071z M203.8098602,237.6025391h2.0644531c2.2324219,0,2.8320312-0.9365234,2.8320312-2.2802734s-0.5996094-2.2802734-2.8320312-2.2802734h-2.0644531V237.6025391z"/>
        <path class="st2" d="M214.5373993,238.0341797c0-6.5039062,4.4404297-9.2167969,8.7363281-9.2167969c4.2724609,0,8.7128906,2.7128906,8.7128906,9.2167969c0,6.5048828-4.4404297,9.2167969-8.7128906,9.2167969C218.977829,247.2509766,214.5373993,244.5390625,214.5373993,238.0341797z M227.1868134,238.0341797c0-3.2636719-1.4169922-5.2558594-3.9130859-5.2558594c-2.5195312,0-3.9355469,1.9921875-3.9355469,5.2558594c0,3.2646484,1.4160156,5.3769531,3.9355469,5.3769531C225.7698212,243.4111328,227.1868134,241.2988281,227.1868134,238.0341797z"/>
        <path class="st2" d="M234.2170868,246.9150391v-17.7617188h4.8007812v13.8974609h7.4648438v3.8642578H234.2170868z"/>
        <path class="st2" d="M247.2483368,243.0029297l3.5527344-2.2080078c1.0556641,1.7041016,2.8085938,2.6884766,4.65625,2.6884766c1.4638519,0,2.5683441-0.4326172,2.5683441-1.5361328c0-1.1289062-1.4160156-1.5605469-3.1679535-1.9921875c-2.9042969-0.7441406-6.7685547-1.4882812-6.7685547-5.5205078c0-3.625,2.7353516-5.6171875,6.7685547-5.6171875c3.7675629,0,6.0243988,1.7529297,7.4404144,3.4804688l-3.2167969,2.640625c-0.9833984-1.2001953-2.7119141-2.2324219-4.2480316-2.2324219c-1.3681641,0-2.0644531,0.4560547-2.0644531,1.2958984c0,1.1767578,1.3925781,1.6083984,3.1445312,2.0400391c2.9042816,0.6962891,6.7929535,1.5849609,6.7929535,5.5683594c0,2.8330078-1.9921875,5.640625-7.4648285,5.640625C251.1848602,247.2509766,248.7610321,245.4267578,247.2483368,243.0029297z"/>
        <path class="st2" d="M202.9221649,266.9150391v-13.7773438h-5.1123047v-3.984375h15.0244141v3.984375h-5.1123047v13.7773438H202.9221649z"/>
        <path class="st2" d="M214.6575165,266.9150391v-17.7617188h12.6728516v3.984375h-7.8730469v2.8808594h5.6171875v3.7441406h-5.6171875v3.2880859h8.28125v3.8642578H214.6575165z"/>
        <path class="st2" d="M229.8967743,266.9150391v-17.7617188h6.9365234c4.5605469,0,7.3447266,1.5126953,7.3447266,5.7851562c0,2.7841797-1.1757812,4.3925781-3.5039062,5.1845703l3.7675781,6.7919922h-5.0878906l-3.4326172-6.1679688h-1.3203125v6.1679688H229.8967743z M234.6008759,257.0986328h2.0644531c1.96875,0,2.8320312-0.5527344,2.8320312-2.0400391c0-1.4882812-0.8632812-2.0166016-2.8320312-2.0166016h-2.0644531V257.0986328z"/>
        </g>
</svg>
